<svg width="112" height="38" viewBox="0 0 112 38" fill="none" xmlns="http://www.w3.org/2000/svg">
<path d="M3.08917 12.4823C2.23368 12.6694 0.950438 10.0227 1.51185 9.83561C3.35651 9.24746 5.73585 8.84645 7.90131 8.60584C8.06171 8.07116 8.24885 7.58994 8.40926 7.1622C9.15781 6.78792 10.8421 7.67014 11.3233 8.07116L11.2431 8.31176L13.0075 8.20483C14.2908 8.12462 15.3334 8.20483 15.6007 8.47217C15.7344 8.60584 16.8305 9.94254 16.8305 10.2901C16.8305 10.6109 16.5632 10.8515 16.1087 10.8515C14.6918 10.8782 12.7402 11.0119 10.5747 11.2525C9.63903 15.5567 9.02414 19.6203 8.32906 24.5661C8.54293 24.5661 9.05088 24.379 9.13108 24.6196C9.31822 25.2345 7.82111 27.8277 7.82111 27.8277C7.52703 28.5762 4.50608 27.3732 4.26547 27.1059C4.88035 22.8819 5.94972 16.4924 7.07255 11.707C5.73585 11.9209 4.37241 12.1882 3.08917 12.4823ZM11.9499 20.7699C12.1103 17.2677 14.3025 12.8031 16.4679 12.2951C16.9224 12.4823 17.2699 12.7229 17.3502 12.9635C17.3502 12.9635 17.8581 12.6427 18.5799 12.6427C22.189 12.6427 22.7772 15.2626 22.697 18.0697C22.5366 21.0372 21.2266 27.4534 16.7887 27.4534C13.1529 27.4534 11.8429 23.7374 11.9499 20.7699ZM14.9708 21.7056C14.8639 23.6037 15.3184 25.1543 16.3343 25.1543C18.6869 25.1543 19.6493 18.4707 19.7295 16.9736C19.783 16.2518 19.9968 14.4606 18.9809 14.4606C17.5106 14.4606 16.2273 18.8717 15.9332 20.2887C15.9065 20.3956 15.3451 20.1817 15.2114 20.0748C15.2114 20.0748 15.0243 20.7699 14.9708 21.7056ZM22.9971 26.2771C22.9704 25.5553 22.9436 24.5661 23.0773 22.2402C23.3179 18.1232 24.6012 11.0921 25.4032 7.10873C25.5101 6.46711 25.8309 6.38691 26.0181 6.38691C26.6597 6.38691 27.836 6.70772 28.4241 6.97506C28.9588 7.21566 28.8519 7.42954 28.7717 7.85728C28.0766 10.798 27.2478 15.5032 26.9003 17.0538C28.4241 15.5032 31.2847 12.4823 33.4769 12.4823C34.7869 12.4823 35.1077 13.418 34.9473 13.9259C32.9155 15.129 30.4025 16.9736 28.4509 19.0321C30.1619 21.1174 32.6481 23.8978 34.573 26.6781C35.0809 27.3197 35.0809 27.6138 34.7601 27.8544C34.4393 28.095 33.2897 28.5762 32.7818 28.7901C32.5412 28.8703 32.0867 29.0307 31.6857 28.5228C29.7876 25.9028 27.5419 22.7215 26.3656 21.4917C26.2052 23.0423 26.2052 25.2077 26.2854 26.7316C26.2854 27.3999 26.0448 27.6138 25.8042 27.5871C25.2962 27.5069 23.9863 27.2128 23.7724 27.1593C23.1308 26.9722 23.0773 26.8652 22.9971 26.2771ZM33.2187 23.3096C33.2187 18.6311 35.5446 11.9743 38.726 11.9743C40.0092 11.9743 42.041 12.9635 42.041 15.6636C42.041 19.0589 40.5171 21.9729 38.619 21.9729C37.2021 21.9729 36.6942 20.7699 36.6942 20.7699C36.6942 20.7699 36.1595 22.16 36.1595 24.1651C36.1595 25.4483 36.6942 26.2236 37.8437 26.2236C40.1429 26.2236 41.7469 23.0957 41.8806 21.465C41.8806 21.465 42.0143 21.1976 42.4153 21.1976C43.244 21.1976 43.9124 21.7056 43.9124 22.6413C43.9124 24.8869 42.1747 28.5495 38.4319 28.5495C35.8119 28.5495 33.2187 26.6514 33.2187 23.3096ZM37.015 19.2995C37.015 19.2995 37.1219 19.9411 37.6566 19.9411C38.5388 19.9411 39.2874 17.1875 39.3141 15.0488C39.3141 14.0061 39.1537 13.8725 39.02 13.8725C38.9131 13.8725 38.8062 13.9794 38.619 14.3269C38.0041 15.6636 37.3091 17.642 37.015 19.2995ZM48.9112 18.5242H48.5904C47.4676 20.7431 46.0774 24.8335 46.0507 27.1861C46.0507 27.1861 45.4625 27.6138 44.5268 27.6138C42.9763 27.6138 42.5485 26.1702 42.5485 24.1384C42.5485 18.444 43.5912 12.8031 45.3289 12.8031C45.9438 12.8031 47.0666 13.1239 46.9597 13.7388C46.4784 16.1449 45.8101 18.444 45.7299 20.9303H45.8368C46.8795 18.1499 47.9488 15.1824 49.4459 12.4823C49.5261 12.2684 49.8202 12.108 50.2747 12.108C51.2104 12.108 53.1887 12.7764 53.0818 13.6319C52.7877 16.3855 51.1836 20.1817 51.1836 23.3363C51.1836 24.6196 51.5045 25.2345 52.2263 25.2345C53.0818 25.2345 53.7501 23.4967 53.964 22.8551C53.964 22.8551 55.2472 22.8017 55.2472 23.9512C55.2472 25.1008 53.7769 27.4267 51.3708 27.4267C48.7776 27.4267 48.0825 25.4216 48.1092 23.3898C48.1627 22.3204 48.6172 19.8074 48.9112 18.5242ZM53.8059 27.2663C54.394 23.1225 56.0516 14.7012 57.0407 10.2901C55.7842 10.7446 55.0891 11.6001 54.7416 12.3219C54.7416 12.3219 54.5812 12.5892 54.3673 12.5892C53.8861 12.5892 52.6563 11.5199 52.6296 11.0119C52.6296 11.0119 53.4851 8.65931 57.5754 8.09789C57.6289 7.91075 57.6556 7.72361 57.7091 7.61668C57.8962 7.02853 58.0566 6.60078 58.9656 6.60078C59.5805 6.60078 60.7835 6.94832 61.131 7.34933L60.9172 8.07116C65.061 8.52564 68.1354 10.8782 68.1354 13.8457C68.1354 16.733 65.7293 18.7113 62.3341 19.5134C63.5104 20.6897 64.9273 22.16 66.0234 23.47L66.3175 23.3631C67.173 23.069 67.9215 25.0741 68.0819 25.5553C68.2156 25.9296 68.2423 26.1969 68.0819 26.4375C67.868 26.785 66.2907 27.9881 65.756 28.0415C63.9649 26.1969 60.5162 22.0798 58.4844 20.2084L57.7091 24.6998C57.6556 25.181 58.0031 25.2345 57.8695 26.0365C57.6823 26.9454 57.3081 28.095 56.7466 28.095C56.0516 28.095 53.9663 27.4534 53.8059 27.2663ZM60.4627 10.0227C60.0082 12.108 59.4735 14.9418 58.9656 17.6687C62.3341 17.5885 64.4461 16.2518 64.4461 13.5784C64.4461 11.6535 62.7351 10.3703 60.4627 10.0227ZM67.2369 23.3096C67.2369 18.6311 69.5627 11.9743 72.7441 11.9743C74.0273 11.9743 76.0591 12.9635 76.0591 15.6636C76.0591 19.0589 74.5353 21.9729 72.6372 21.9729C71.2202 21.9729 70.7123 20.7699 70.7123 20.7699C70.7123 20.7699 70.1776 22.16 70.1776 24.1651C70.1776 25.4483 70.7123 26.2236 71.8619 26.2236C74.161 26.2236 75.765 23.0957 75.8987 21.465C75.8987 21.465 76.0324 21.1976 76.4334 21.1976C77.2622 21.1976 77.9305 21.7056 77.9305 22.6413C77.9305 24.8869 76.1928 28.5495 72.45 28.5495C69.8301 28.5495 67.2369 26.6514 67.2369 23.3096ZM71.0331 19.2995C71.0331 19.2995 71.14 19.9411 71.6747 19.9411C72.557 19.9411 73.3055 17.1875 73.3322 15.0488C73.3322 14.0061 73.1718 13.8725 73.0382 13.8725C72.9312 13.8725 72.8243 13.9794 72.6372 14.3269C72.0223 15.6636 71.3272 17.642 71.0331 19.2995ZM84.48 25.2077H84.3195C83.7849 26.1434 82.5818 27.1593 81.0847 27.1593C78.438 27.1593 76.5667 25.1543 76.5667 21.7858C76.5667 17.0271 78.8658 12.2149 82.662 12.2149C85.1216 12.2149 86.5385 13.3912 86.5385 14.4606C86.5385 14.621 86.485 14.8082 86.485 14.8082C86.7791 14.9151 88.1158 14.9418 87.9287 15.53C87.1266 18.2301 86.5385 20.957 86.5117 22.9888C86.4583 24.1384 86.6454 24.9939 87.4207 24.9939C88.6505 24.9939 88.998 23.3631 89.1852 21.6788C89.1852 21.6788 90.8159 21.465 90.8159 22.9086C90.8159 24.4592 89.5327 27.1593 86.9662 27.1593C85.1483 27.1593 84.5602 25.8493 84.48 25.2077ZM80.0421 22.8017C79.9886 24.3522 80.2025 24.9671 80.8174 24.9671C82.1808 24.9671 83.6245 19.0054 83.6779 18.0965C83.6779 18.0965 82.9294 17.936 82.6086 17.535C83.1432 16.7865 83.4373 15.9577 83.4908 15.0488C83.4908 14.8349 83.5175 14.22 83.063 14.22C81.3788 14.22 80.149 20.1817 80.0421 22.8017ZM96.5341 24.9137H96.4272C95.9994 25.9296 94.8499 27.7742 93.1656 27.7742C90.2249 27.7742 89.0218 24.78 89.0218 22.3739C89.0218 18.7113 90.8398 12.5892 94.9033 12.5892C96.2668 12.5892 97.1757 13.4982 97.1757 13.4982C97.5233 11.6001 97.8976 8.73951 98.058 7.69688C98.2184 6.84139 98.4857 6.38691 98.8333 6.38691C99.8224 6.38691 101.747 6.81465 101.587 7.67014C101.132 10.5307 99.0471 21.866 99.0471 23.7106C99.0471 24.5394 99.3145 24.9137 99.8224 24.9137C100.812 24.9137 101.426 22.9353 101.614 21.4382C101.614 21.4382 103.111 21.1441 103.111 22.5611C103.111 24.2186 101.346 27.0524 98.7798 27.0524C97.3094 27.0524 96.5341 25.983 96.5341 24.9137ZM92.1765 23.8176C92.1497 24.3255 92.1765 25.4483 92.6577 25.4483C93.9142 25.4483 95.9994 19.4866 96.0529 18.3638C95.8123 18.3103 95.5717 18.2301 95.3311 17.8558C95.545 17.1875 95.9994 16.1181 96.0262 15.2894C96.0262 14.8884 95.9727 14.4071 95.5984 14.4071C93.8607 14.4071 92.2834 20.2887 92.1765 23.8176ZM101.078 22.6947C101.078 19.4599 101.933 16.1181 102.976 13.4714C103.217 13.017 103.644 12.8566 104.233 12.8566C105.195 12.8566 106.291 13.4447 106.345 14.0863C105.436 17.0004 104.5 20.1015 104.393 23.1225C104.393 23.7908 104.473 24.4057 104.928 24.4057C105.73 24.4057 106.799 21.9462 107.093 20.8233C107.334 19.8342 108.269 12.7496 109.045 12.7496C110.355 12.7496 111.852 13.3378 111.852 13.9259C111.852 16.4657 110.488 19.5134 110.194 21.3848C109.686 24.0849 108.804 29.6189 108.617 32.1586C108.537 32.72 108.323 32.7468 108.029 32.7468C107.601 32.7468 106.157 32.2388 105.623 31.9982C105.355 31.8645 105.275 31.7576 105.275 31.3298C105.275 30.3139 106.184 26.892 106.425 24.8602C105.997 25.6889 105.168 26.5444 104.019 26.5444C101.586 26.5444 101.078 24.272 101.078 22.6947Z" fill="white"/>
<path d="M52.3652 36.5474C67.9981 32.6279 93.4104 28.5146 101.291 32.0873C106.81 34.5893 96.4572 37.4934 93.0267 36.5474" stroke="white" stroke-width="0.713347"/>
</svg>
